<svg class="tech-logo" xmlns="http://www.w3.org/2000/svg" viewBox="0 0 500 500" preserveAspectRatio="xMidYMid meet">
  <g transform="translate(0,500) scale(0.1,-0.1)" fill="#0dff00" stroke="none">
    <path d="M3355 3849 c-60 -40 -292 -148 -385 -179 -193 -64 -271 -70 -575 -40-205 20 -378 0 -607 -71-300 -92 -450 -223 -709 -621-64 -97-79 -110-412-358-151 -113-274 -206-272-208 2-2 18 1 37 6 54 16 311 100 333 108 12 5 -1-17-35-56-30-36-57-67-60-70-3-3-41-50-85-105-43-55-94-119-113-143l-34-43 56-64c60-68 134-127 182-145 39-16 127-15 164 0 26 11 36 10 75-9 90-42 210-79 222-68 3 3-17 34-44 69-71 90-79 106-57 123 16 11 30 9 96-16 88-32 83-36 69 59-4 28-4 52 0 52 3 0 37-11 74-25l67-26-7 69-7 69 30 11c21 7 31 18 34 39 3 15 26 107 53 203 26 96 56 211 67 255 11 44 24 87 28 95 8 15 621 440 634 440 8 0-40-127-71-185-91-173-214-282-396-350-59-22-109-78-138-154-17-47-48-208-49-261 0-12 17-15 98-15 87 0 102-3 151-29 119-62 216-194 243-329 17-86 2-122-79-196-63-59-68-61-119-61l-54 0 0-45c0-49 5-46-80-49l-45-1-3-45c-4-65-25-76-100-55-31 9-81 30-111 46-30 16-56 27-59 24-8-7 18-96 45-156 24-55 27-58 118-103 124-62 184-79 280-80 76-1 84 1 159 43 44 24 161 96 260 161 394 255 552 339 720 382 230 60 335 87 486 128 85 23 223 59 305 80 83 22 159 42 170 45 16 5 36 48 88 180 37 96 67 179 67 185 0 6-8 9-17 6-10-3-43-12-73-20-30-8-98-26-150-39-52-14-149-40-215-57-66-17-163-43-215-57-52-14-107-28-122-31l-28-4 0 166c0 91 3 166 8 166 4 0 48 11 97 24 238 64 557 148 725 192 74 19 138 38 141 42 4 4 16 32 27 62 11 30 41 109 66 174 25 65 46 121 46 124 0 7-39-3-490-123-74-20-184-49-245-65-60-15-162-42-225-59-63-17-123-31-132-31-16 0-18 14-18 159 0 88 4 162 9 165 9 6 71 23 676 181 50 13 187 49 305 81 118 31 227 59 242 61 20 4 30 15 43 51 23 64 84 220 101 260 15 36 18 62 6 62-7 0-115-27-294-74-51-14-145-38-209-55-64-17-152-40-195-51-43-12-137-37-209-56-71-18-188-49-260-69-71-19-133-35-138-35-4 0 6 24 22 53 16 28 36 76 45 106 16 55 22 202 9 200-5 0-21-9-38-20z m-576-1021c0-7-17-55-37-107l-38-94-99-28c-55-15-115-31-134-34-30-6-33-4-26 12 5 10 24 59 43 109l35 92 66 17c36 9 84 23 106 30 52 17 85 18 84 3z m225-312l-39-106-50-13c-27-8-85-24-129-36-43-12-80-20-83-17-3 3 11 45 31 94 20 50 36 95 36 101 0 6 10 16 23 22 28 13 241 68 246 63 2-1-14-50-35-108z m-314 22c0-7-18-56-39-107-28-68-45-97-61-103-40-15-222-59-231-56-6 2 63 205 73 213 5 4 233 63 246 64 6 1 12-5 12-11z"/>
  </g>
</svg> 