<svg xmlns="http://www.w3.org/2000/svg" x="0px" y="0px" width="48px" height="48px" viewBox="0 0 64 64">
  <path fill="#0dff00" d="M9.186,32.954 c-0.117,0-0.146-0.088-0.088-0.175l0.409-0.73c0.058-0.088,0.175-0.175,0.292-0.175h5.843c0.117,0,0.175,0.088,0.175,0.204 l-0.058,0.701c0,0.117-0.117,0.204-0.204,0.204L9.186,32.954z"/>
  <path fill="#0dff00" d="M2.117,30.267 c-0.117,0-0.146-0.058-0.088-0.146l0.613-0.789c0.058-0.088,0.204-0.146,0.321-0.146h13.321c0.117,0,0.175,0.088,0.146,0.175 l-0.234,0.701c-0.029,0.117-0.146,0.175-0.263,0.175L2.117,30.267z"/>
  <path fill="#0dff00" d="M6.528,27.579 c-0.117,0-0.146-0.058-0.088-0.146l0.613-0.789c0.058-0.088,0.204-0.146,0.321-0.146h10.429c0.117,0,0.146,0.088,0.088,0.175 l-0.497,0.76c-0.058,0.088-0.204,0.175-0.292,0.175L6.528,27.579z"/>
  <path fill="#0dff00" d="M39.51,27.053 c-1.84,0.467-3.097,0.818-4.908,1.285c-0.438,0.117-0.467,0.146-0.847-0.292c-0.438-0.497-0.76-0.818-1.373-1.11 c-1.84-0.906-3.622-0.643-5.288,0.438c-1.986,1.285-3.009,3.184-2.98,5.55c0.029,2.337,1.636,4.265,3.944,4.586 c1.986,0.263,3.652-0.438,4.966-1.928c0.263-0.321,0.497-0.672,0.789-1.081c-1.052,0-2.366,0-5.638,0 c-0.613,0-0.76-0.38-0.555-0.876c0.38-0.906,1.081-2.425,1.49-3.184c0.088-0.175,0.292-0.467,0.73-0.467 c1.49,0,6.982,0,10.634,0c-0.058,0.789-0.058,1.578-0.175,2.366c-0.321,2.103-1.11,4.031-2.395,5.726 c-2.103,2.775-4.849,4.499-8.326,4.966c-2.863,0.38-5.521-0.175-7.858-1.928c-2.162-1.636-3.389-3.798-3.71-6.485 c-0.38-3.184,0.555-6.047,2.483-8.559c2.074-2.717,4.82-4.44,8.18-5.054c2.746-0.497,5.375-0.175,7.741,1.431 c1.548,1.022,2.658,2.425,3.389,4.119C39.977,26.82,39.86,26.966,39.51,27.053z"/>
  <path fill="#0dff00" d="M49.179,43.208 c-2.658-0.058-5.083-0.818-7.128-2.571c-1.724-1.49-2.804-3.389-3.155-5.638c-0.526-3.301,0.38-6.222,2.366-8.822 c2.133-2.804,4.703-4.265,8.18-4.879c2.98-0.526,5.784-0.234,8.326,1.49c2.308,1.578,3.739,3.71,4.119,6.515 c0.497,3.944-0.643,7.157-3.36,9.903c-1.928,1.957-4.294,3.184-7.011,3.739C50.727,43.091,49.939,43.121,49.179,43.208z M56.132,31.406c-0.029-0.38-0.029-0.672-0.088-0.964c-0.526-2.892-3.184-4.528-5.959-3.885 c-2.717,0.613-4.47,2.337-5.112,5.083c-0.526,2.279,0.584,4.586,2.688,5.521c1.607,0.701,3.213,0.613,4.762-0.175 C54.73,35.788,55.986,33.918,56.132,31.406z"/>
</svg> 