  <svg class="tech-logo" role="img" viewBox="0 0 32 32" xmlns="http://www.w3.org/2000/svg" fill="#0dff00">
            <path
              d="M27.726,15.786A3.248,3.248,0,0,0,25.083,12.6L28.677,2H11.689l3.6,10.621a3.242,3.242,0,0,0-1.005,5.919,10.852,10.852,0,0,1-1.568,1.846,9.836,9.836,0,0,1-3.16,2.03,2.657,2.657,0,0,1-1.134-3.281l.04-.093.074-.175a3.244,3.244,0,1,0-3.34-.754c-.108.231-.222.465-.339.706a14.022,14.022,0,0,0-1.4,3.8c-.465,2.8.285,5.043,2.111,6.308A5.751,5.751,0,0,0,8.934,30c2.132,0,4.289-1.071,6.4-2.119a23.638,23.638,0,0,1,4.642-1.917,18.262,18.262,0,0,1,1.8-.319,9.969,9.969,0,0,0,3.679-1.028,5.088,5.088,0,0,0,2.487-3.53,5.255,5.255,0,0,0-.69-3.613,3.225,3.225,0,0,0,.475-1.688Zm-1.273,0a1.97,1.97,0,1,1-1.97-1.97,1.973,1.973,0,0,1,1.97,1.97ZM26.9,3.273l-3.174,9.36a3.283,3.283,0,0,0-.4.125l-3.135-6.4L17.046,12.72a3.276,3.276,0,0,0-.419-.114L13.464,3.273ZM15.993,13.816a1.97,1.97,0,1,1-1.97,1.97,1.972,1.972,0,0,1,1.97-1.97Zm-8.523.019A1.97,1.97,0,1,1,5.5,15.805a1.972,1.972,0,0,1,1.969-1.97Zm19.217,7.034a3.818,3.818,0,0,1-1.871,2.646,8.88,8.88,0,0,1-3.223.87c-.632.091-1.285.185-1.924.343a24.609,24.609,0,0,0-4.9,2.013c-3.164,1.571-5.9,2.928-8.472,1.143-1.887-1.308-1.8-3.728-1.58-5.054A12.775,12.775,0,0,1,6,19.376c.092-.19.182-.375.27-.559a3.25,3.25,0,0,0,.838.21,3.963,3.963,0,0,0,2.1,4.655l.245.126.259-.093a11.022,11.022,0,0,0,3.876-2.4,12.11,12.11,0,0,0,1.918-2.32,3.241,3.241,0,0,0,2.64-5.627l2.038-4.121,2.059,4.2a3.24,3.24,0,0,0,4.088,5,3.952,3.952,0,0,1,.355,2.421Z">
            </path>
          </svg>