<svg xmlns="http://www.w3.org/2000/svg" fill="#0dff00" class="tech-logo" role="img" viewBox="0 0 48 48">

            <path
              d="M5.5,22.9722h0a8.7361,8.7361,0,0,0,8.7361,8.7361h2.0556v2.0556A8.7361,8.7361,0,0,0,25.0278,42.5h0V22.9722Z" />
            <path
              d="M14.2361,14.2361h0a8.7361,8.7361,0,0,0,8.7361,8.7361h2.0556v2.0556a8.7361,8.7361,0,0,0,8.7361,8.7361h0V14.2361Z" />
            <path
              d="M22.9722,5.5h0a8.7361,8.7361,0,0,0,8.7361,8.7361h2.0556v2.0556A8.7361,8.7361,0,0,0,42.5,25.0278h0V5.5Z" />
          </svg>