<svg fill="#0dff00" xmlns="http://www.w3.org/2000/svg" x="0px" y="0px" class="tech-logo"
            viewBox="0 0 50 50">
            <path fill="none"
              d="M46.008,31.885c0-0.653-1.727-1.183-3.861-1.183c-1.856,0-3.401,0.401-3.773,0.934 c-3.674-1.737-7.349-3.475-11.023-5.213c-1.279-0.605-2.739-0.599-4.014,0.014c-3.912,1.884-7.823,3.768-11.735,5.652 c-0.885-0.129-1.954-0.206-3.106-0.206c-3.05,0.001-5.492,0.526-5.492,1.18c0,0-0.012,3.301,0,3.7 c-0.009,0.809,0.092,1.187,0.685,1.467c5.779,2.733,11.558,5.466,17.337,8.199c1.467,0.747,3.143,0.743,4.606-0.016 c6.6-3.179,13.2-6.358,19.801-9.537c0.496-0.239,0.598-0.657,0.563-1.336C45.996,34.285,46.008,31.885,46.008,31.885z">
            </path>
            <path
              d="M25.359,27.974c0.392,0,0.774,0.087,1.136,0.258l8.159,3.859l2.865,1.355l1.529,0.723l0.807-1.158 c0.326-0.125,1.126-0.307,2.293-0.307c0.805,0,1.436,0.087,1.857,0.181c-0.003,0.741-0.007,1.741-0.007,2.464l-6.256,3.013 l-12.976,6.25l-0.027,0.013l-0.026,0.014c-0.445,0.231-0.915,0.348-1.396,0.348c-0.475,0-0.94-0.114-1.382-0.339l-0.026-0.013 l-0.026-0.012l-8.893-4.206l-7.987-3.777C4.997,36.333,4.997,35.31,5,34.19c0.697-0.15,1.885-0.306,3.495-0.306 c1.013,0,1.988,0.064,2.818,0.185l0.605,0.088l0.551-0.266l9.552-4.601l2.182-1.051C24.57,28.063,24.96,27.974,25.359,27.974 M25.359,25.974c-0.69,0-1.38,0.155-2.023,0.464c-3.912,1.884-7.823,3.768-11.735,5.652c-0.885-0.129-1.954-0.206-3.106-0.206 c-3.05,0.001-5.492,0.526-5.492,1.18c0,0-0.012,3.301,0,3.7c-0.009,0.809,0.092,1.187,0.685,1.467 c5.779,2.733,11.558,5.466,17.337,8.199c0.729,0.371,1.509,0.557,2.289,0.557c0.791,0,1.581-0.191,2.317-0.573 c6.6-3.179,13.2-6.358,19.801-9.537c0.496-0.239,0.598-0.657,0.563-1.336c0-1.254,0.012-3.654,0.012-3.654 c0-0.653-1.727-1.183-3.861-1.183c-1.856,0-3.401,0.401-3.773,0.934c-3.674-1.737-7.349-3.475-11.023-5.213 C26.716,26.123,26.038,25.974,25.359,25.974L25.359,25.974z">
            </path>
            <path fill="none"
              d="M21.038,41.976c-5.771-2.58-11.541-5.16-17.313-7.741c-0.963-0.431-0.968-1.796-0.008-2.233 c6.545-2.98,13.088-5.96,19.633-8.941c1.281-0.583,2.75-0.588,4.035-0.014c6.017,2.691,12.035,5.381,18.052,8.072 c0.79,0.353,0.794,1.474,0.006,1.832c-6.594,3.003-13.187,6.006-19.782,9.008C24.194,42.628,22.51,42.634,21.038,41.976z">
            </path>
            <path
              d="M25.383,24.621L25.383,24.621c0.411,0,0.81,0.085,1.185,0.253l8.949,4.001l7.091,3.17L24.833,40.14 c-0.474,0.216-0.979,0.325-1.501,0.325c-0.513,0-1.01-0.106-1.479-0.315l-7.885-3.525l-7.86-3.514l8.025-3.654l10.045-4.574 C24.56,24.708,24.965,24.621,25.383,24.621 M25.383,22.621c-0.693,0-1.387,0.147-2.032,0.441c-6.545,2.98-13.089,5.96-19.633,8.941 c-0.96,0.437-0.955,1.802,0.008,2.233c5.771,2.58,11.541,5.16,17.313,7.741c0.73,0.326,1.513,0.49,2.295,0.49 c0.795,0,1.59-0.168,2.329-0.505c6.595-3.002,13.188-6.005,19.782-9.008c0.788-0.359,0.784-1.479-0.006-1.832 c-6.017-2.691-12.035-5.381-18.052-8.072C26.748,22.763,26.065,22.62,25.383,22.621L25.383,22.621z">
            </path>
            <path fill="none"
              d="M45.996,23.023c0-0.653-1.692-1.252-3.825-1.252c-1.855,0-3.4,0.401-3.771,0.934 c-3.672-1.737-7.345-3.475-11.017-5.213c-1.278-0.605-2.737-0.599-4.012,0.014c-3.909,1.884-7.819,3.768-11.728,5.652 c-0.885-0.129-1.953-0.206-3.105-0.206c-3.048,0.001-5.527,0.598-5.527,1.251c0,0,0,3.234-0.009,3.551 c0.009,0.712,0.139,1.266,0.732,1.546c5.776,2.733,11.551,5.466,17.327,8.199c1.466,0.694,3.142,0.688,4.604-0.016 c6.596-3.179,13.193-6.358,19.79-9.537c0.496-0.239,0.559-0.714,0.54-1.278C45.963,25.685,45.996,23.023,45.996,23.023z">
            </path>
            <path
              d="M25.393,19.043c0.392,0,0.773,0.087,1.134,0.257l8.251,3.905l2.767,1.309l1.529,0.723l0.807-1.159 c0.326-0.125,1.125-0.307,2.29-0.307c0.781,0,1.404,0.098,1.816,0.201c-0.006,0.756-0.01,1.783,0.003,2.46l-6.281,3.027 l-12.911,6.222c-0.461,0.222-0.949,0.335-1.451,0.335c-0.494,0-0.974-0.109-1.429-0.324l-8.614-4.076l-8.299-3.927 c0.005-0.402,0.006-1.513,0.007-2.391c0.698-0.167,1.904-0.344,3.527-0.344c1.013,0,1.986,0.064,2.815,0.185l0.606,0.089 l0.552-0.266l4.726-2.277l7.002-3.374C24.606,19.133,24.994,19.043,25.393,19.043 M25.393,17.043c-0.69,0-1.379,0.155-2.022,0.464 c-3.909,1.884-7.819,3.768-11.728,5.652c-0.885-0.129-1.953-0.206-3.105-0.206c-3.048,0.001-5.527,0.598-5.527,1.251 c0,0,0,3.234-0.009,3.551c0.009,0.712,0.139,1.266,0.732,1.546c5.776,2.733,11.551,5.466,17.327,8.199 c0.727,0.344,1.506,0.516,2.284,0.516c0.791,0,1.582-0.178,2.319-0.533c6.596-3.179,13.193-6.358,19.79-9.537 c0.496-0.239,0.559-0.714,0.54-1.278c-0.033-0.983,0-3.645,0-3.645c0-0.653-1.692-1.252-3.825-1.252 c-1.855,0-3.4,0.401-3.771,0.934c-3.672-1.737-7.345-3.475-11.017-5.213C26.75,17.193,26.071,17.043,25.393,17.043L25.393,17.043z">
            </path>
            <path fill="none"
              d="M21.069,33.051c-5.789-2.592-11.577-5.185-17.366-7.777c-0.936-0.419-0.941-1.746-0.007-2.172 c6.561-2.993,13.121-5.985,19.683-8.978c1.27-0.579,2.727-0.584,4.001-0.014c6.035,2.703,12.07,5.405,18.105,8.108 c0.763,0.342,0.767,1.424,0.006,1.771c-6.61,3.015-13.22,6.031-19.831,9.045C24.201,33.7,22.529,33.705,21.069,33.051z">
            </path>
            <path
              d="M25.393,15.687L25.393,15.687c0.405,0,0.798,0.084,1.168,0.25l9.158,4.101l6.871,3.077l-17.762,8.101 c-0.468,0.214-0.967,0.322-1.482,0.322c-0.507,0-0.998-0.105-1.46-0.312l-8.389-3.757L6.152,24.18l7.806-3.56l10.25-4.675 C24.582,15.773,24.981,15.687,25.393,15.687 M25.393,13.687c-0.688,0-1.375,0.146-2.015,0.438 c-6.561,2.993-13.121,5.985-19.683,8.978c-0.933,0.426-0.928,1.753,0.008,2.172c5.789,2.592,11.577,5.185,17.366,7.777 c0.725,0.324,1.501,0.487,2.277,0.487c0.789,0,1.578-0.167,2.312-0.502c6.611-3.014,13.221-6.03,19.831-9.045 c0.761-0.347,0.757-1.429-0.006-1.771c-6.035-2.703-12.07-5.405-18.105-8.108C26.747,13.828,26.07,13.687,25.393,13.687 L25.393,13.687z">
            </path>
            <path fill="none"
              d="M46.008,14.07c0-0.653-1.719-1.297-3.852-1.297c-1.855,0-3.4,0.401-3.771,0.934 c-3.672-1.737-7.345-3.475-11.017-5.213c-1.278-0.605-2.737-0.599-4.012,0.014c-3.909,1.884-7.819,3.768-11.728,5.652 c-0.885-0.129-1.953-0.206-3.105-0.206c-3.048,0.001-5.514,0.53-5.514,1.184c0,0-0.027,3.627-0.015,3.66 c-0.026,0.606,0.132,1.223,0.725,1.503c5.776,2.733,11.551,5.466,17.327,8.199c1.466,0.694,3.142,0.688,4.604-0.016 c6.596-3.179,13.193-6.358,19.79-9.537c0.496-0.239,0.576-0.728,0.558-1.264C45.99,17.006,46.008,14.07,46.008,14.07z">
            </path>
            <path
              d="M25.378,10.045c0.392,0,0.773,0.087,1.134,0.257l8.207,3.884l2.81,1.33l1.529,0.723l0.807-1.159 c0.326-0.125,1.125-0.307,2.29-0.307c0.797,0,1.434,0.109,1.847,0.223c-0.004,0.766-0.008,1.816-0.005,2.426l-6.85,3.301 l-12.365,5.959c-0.461,0.222-0.949,0.335-1.451,0.335c-0.494,0-0.974-0.109-1.429-0.324l-8.664-4.099l-8.238-3.898L5.01,18.48 l-0.019-0.051c0-0.433,0.004-1.263,0.01-2.162c0.7-0.152,1.898-0.311,3.522-0.311c1.013,0,1.986,0.064,2.816,0.185l0.606,0.089 l0.552-0.266l8.565-4.128l3.162-1.524C24.59,10.135,24.979,10.045,25.378,10.045 M25.378,8.045c-0.69,0-1.379,0.155-2.022,0.464 c-3.909,1.884-7.819,3.768-11.728,5.652c-0.885-0.129-1.953-0.206-3.105-0.206c-3.048,0.001-5.514,0.53-5.514,1.184 c0,0-0.027,3.627-0.015,3.66c-0.026,0.606,0.132,1.223,0.725,1.503c5.776,2.733,11.551,5.466,17.327,8.199 c0.727,0.344,1.506,0.516,2.284,0.516c0.791,0,1.582-0.178,2.319-0.533c6.596-3.179,13.193-6.358,19.79-9.537 c0.496-0.239,0.576-0.728,0.558-1.264c-0.009-0.677,0.009-3.612,0.009-3.612c0-0.653-1.719-1.297-3.852-1.297 c-1.855,0-3.4,0.401-3.771,0.934c-3.672-1.737-7.345-3.475-11.017-5.213C26.734,8.195,26.056,8.045,25.378,8.045L25.378,8.045z">
            </path>
            <g>
              <path
                d="M21.073,24.049c-5.779-2.584-11.556-5.167-17.335-7.751c-0.956-0.427-0.96-1.782-0.008-2.216 c6.552-2.984,13.103-5.967,19.656-8.951c1.278-0.582,2.745-0.587,4.027-0.014c6.025,2.694,12.05,5.387,18.075,8.082 c0.783,0.35,0.787,1.46,0.006,1.816c-6.601,3.007-13.202,6.013-19.805,9.018C24.224,24.7,22.542,24.706,21.073,24.049z">
              </path>
              <path
                d="M25.415,6.691c0.41,0,0.807,0.085,1.182,0.252l8.913,3.985l7.131,3.188L24.86,22.213c-0.473,0.215-0.977,0.325-1.497,0.325 c-0.512,0-1.008-0.106-1.475-0.315l-8.668-3.875l-7.081-3.166l8.995-4.096l9.079-4.134C24.594,6.779,24.997,6.691,25.415,6.691 M25.414,4.691c-0.692,0-1.384,0.147-2.029,0.44c-6.552,2.984-13.103,5.967-19.656,8.951c-0.953,0.434-0.948,1.789,0.008,2.216 c5.779,2.584,11.556,5.167,17.335,7.751c0.729,0.326,1.51,0.489,2.291,0.489c0.794,0,1.587-0.168,2.326-0.504 c6.602-3.005,13.203-6.012,19.805-9.018c0.78-0.355,0.777-1.466-0.006-1.816c-6.025-2.694-12.05-5.387-18.075-8.082 C26.777,4.833,26.096,4.691,25.414,4.691L25.414,4.691z">
              </path>
            </g>
            <path
              d="M18.973,14.477c-0.002,0.745-2.128,1.471-3.923,1.492c-1.863,0.021-4.062-0.71-4.069-1.467	c-0.007-0.759,2.189-1.545,4.091-1.527C16.869,12.992,18.975,13.734,18.973,14.477z">
            </path>
            <path
              d="M17.796,17.846c1.947,0.831,3.893,1.664,5.84,2.495c0.857-1.269,1.715-2.538,2.572-3.807	C23.404,16.972,20.6,17.41,17.796,17.846z">
            </path>
            <path
              d="M22.761,10.538c-0.896,0.326-1.792,0.652-2.688,0.978c1.226,0.107,2.453,0.215,3.679,0.321	c0.391,0.648,0.78,1.295,1.171,1.942c0.24-0.587,0.48-1.175,0.72-1.762c1.046-0.081,2.092-0.163,3.139-0.244	c-0.811-0.341-1.622-0.683-2.433-1.024c0.207-0.495,0.413-0.989,0.62-1.485c-0.789,0.236-1.577,0.472-2.367,0.708	c-0.87-0.343-1.741-0.686-2.611-1.029C22.247,9.475,22.504,10.007,22.761,10.538z">
            </path>
            <path
              d="M28.882,14.289c1.918-0.765,3.24-1.496,5.158-2.261c1.657,0.704,3.314,1.409,4.972,2.113	c-1.86,0.74-3.121,1.445-4.981,2.185C32.315,15.646,30.598,14.968,28.882,14.289z">
            </path>
          </svg>